<svg width="176" height="36" viewBox="0 0 176 36" fill="none" xmlns="http://www.w3.org/2000/svg">
<path d="M31.6816 3.77509H36.0002L40.248 14.6372L44.5312 3.77509H48.8144V19.2578H46.1241V6.39578H46.0887L41.2746 19.2578H39.2923L34.4073 6.39578H34.3719V19.2578H31.6816V3.77509Z" fill="#000047"/>
<path d="M61.4159 19.2578H58.8672V17.5682H58.8318C58.584 18.0854 58.1947 18.5337 57.6637 18.9475C57.1327 19.3268 56.4248 19.5337 55.5398 19.5337C54.8318 19.5337 54.1947 19.4303 53.6991 19.1889C53.2035 18.9475 52.7787 18.6716 52.4602 18.2578C52.1416 17.8785 51.9292 17.4303 51.7876 16.9475C51.646 16.4647 51.5752 15.9475 51.5752 15.3958V8.7406H54.2655V14.0509C54.2655 14.3268 54.2655 14.6716 54.3009 15.0165C54.3363 15.3613 54.4071 15.7061 54.5487 16.0165C54.6902 16.3268 54.8672 16.6027 55.115 16.8096C55.3628 17.0165 55.7522 17.1199 56.2124 17.1199C56.6725 17.1199 57.0265 17.0509 57.3451 16.913C57.6637 16.7751 57.9115 16.5682 58.1239 16.3268C58.3363 16.0854 58.4778 15.8096 58.5486 15.4647C58.6548 15.1544 58.6902 14.8096 58.6902 14.4647V8.7406H61.3805V19.2578H61.4159Z" fill="#000047"/>
<path d="M63.8584 8.74058H66.4071V10.4302H66.4425C66.6903 9.913 67.0796 9.46472 67.6106 9.05093C68.1416 8.67162 68.8495 8.46472 69.7345 8.46472C70.4425 8.46472 71.0796 8.56817 71.5752 8.80955C72.0708 9.05093 72.4956 9.36127 72.8141 9.74058C73.1327 10.1199 73.3451 10.5682 73.4867 11.0509C73.6283 11.5337 73.6991 12.0509 73.6991 12.6027V19.2233H71.0088V13.9475C71.0088 13.6716 71.0088 13.3268 70.9734 12.982C70.938 12.6371 70.8672 12.2923 70.7257 11.982C70.5841 11.6716 70.4071 11.3958 70.1239 11.1889C69.8407 10.982 69.4867 10.8785 69.0265 10.8785C68.5664 10.8785 68.2124 10.9475 67.8938 11.0854C67.5752 11.2233 67.3274 11.4302 67.115 11.6716C66.9026 11.913 66.7611 12.1889 66.6903 12.5337C66.5841 12.844 66.5487 13.1889 66.5487 13.5337V19.2578H63.8584V8.74058Z" fill="#000047"/>
<path d="M84.7082 17.6716H84.6728C84.2834 18.3268 83.7524 18.7751 83.1153 19.0854C82.4427 19.3613 81.7347 19.5337 80.9914 19.5337C80.1418 19.5337 79.3985 19.3958 78.7613 19.1199C78.1241 18.844 77.5577 18.4303 77.0976 17.9475C76.6374 17.4647 76.2834 16.8785 76.0356 16.1889C75.7878 15.5337 75.6816 14.8096 75.6816 14.0165C75.6816 13.2578 75.8232 12.5337 76.071 11.844C76.3188 11.1889 76.6728 10.6027 77.133 10.0854C77.5931 9.60267 78.1241 9.18888 78.7967 8.91301C79.4339 8.63715 80.1418 8.49922 80.9206 8.49922C81.4162 8.49922 81.8763 8.5337 82.2657 8.63715C82.6551 8.7406 83.0091 8.87853 83.2923 9.01646C83.5754 9.18887 83.8586 9.36129 84.071 9.5337C84.2834 9.70612 84.4604 9.87853 84.602 10.0854H84.6728V2.70612H87.3631V19.2234H84.8144V17.6716H84.7082ZM78.3365 14.0165C78.3365 14.4303 78.4073 14.8096 78.5489 15.1889C78.6905 15.5682 78.9029 15.913 79.1861 16.1889C79.4692 16.4647 79.7878 16.7061 80.1772 16.8785C80.5666 17.0509 80.9914 17.1544 81.4869 17.1544C81.9825 17.1544 82.4073 17.0509 82.7967 16.8785C83.1861 16.7061 83.5046 16.4647 83.7878 16.1889C84.071 15.913 84.2834 15.5682 84.425 15.1889C84.5666 14.8096 84.6374 14.4303 84.6374 14.0165C84.6374 13.6027 84.5666 13.2234 84.425 12.844C84.2834 12.4647 84.071 12.1199 83.7878 11.844C83.5046 11.5682 83.1861 11.3268 82.7967 11.1544C82.4073 10.982 81.9825 10.8785 81.4869 10.8785C80.9914 10.8785 80.5666 10.982 80.1772 11.1544C79.7878 11.3268 79.4692 11.5682 79.1861 11.844C78.9029 12.1199 78.6905 12.4647 78.5489 12.844C78.4073 13.1889 78.3365 13.6027 78.3365 14.0165Z" fill="#000047"/>
<path d="M89.2041 14.0164C89.2041 13.1889 89.3457 12.4302 89.6643 11.7406C89.9829 11.0509 90.3722 10.4992 90.9032 10.0164C91.4342 9.53369 92.036 9.15438 92.7793 8.913C93.4873 8.63714 94.266 8.53369 95.0802 8.53369C95.8944 8.53369 96.6377 8.67162 97.3811 8.913C98.0891 9.18886 98.7262 9.53369 99.2572 10.0164C99.7882 10.4992 100.213 11.0854 100.496 11.7406C100.815 12.4302 100.956 13.1889 100.956 14.0164C100.956 14.844 100.815 15.6027 100.496 16.2923C100.178 16.982 99.7882 17.5337 99.2572 18.0164C98.7262 18.4992 98.1245 18.8785 97.3811 19.1199C96.6377 19.3613 95.8944 19.4992 95.0802 19.4992C94.266 19.4992 93.5227 19.3613 92.7793 19.1199C92.036 18.8785 91.4342 18.4992 90.9032 18.0164C90.3722 17.5337 89.9475 16.9475 89.6643 16.2923C89.3457 15.6027 89.2041 14.844 89.2041 14.0164ZM91.8944 14.0164C91.8944 14.4302 91.9652 14.8096 92.1068 15.1889C92.2484 15.5682 92.4607 15.913 92.7439 16.1889C93.0271 16.4647 93.3457 16.7061 93.7351 16.8785C94.1244 17.0509 94.5492 17.1544 95.0448 17.1544C95.5404 17.1544 95.9652 17.0509 96.3545 16.8785C96.7439 16.7061 97.0625 16.4647 97.3457 16.1889C97.6289 15.913 97.8413 15.5682 97.9829 15.1889C98.1244 14.8096 98.1952 14.4302 98.1952 14.0164C98.1952 13.6027 98.1244 13.2233 97.9829 12.844C97.8413 12.4647 97.6289 12.1199 97.3457 11.844C97.0625 11.5682 96.7439 11.3268 96.3545 11.1544C95.9652 10.982 95.5404 10.8785 95.0448 10.8785C94.5492 10.8785 94.1244 10.982 93.7351 11.1544C93.3457 11.3268 93.0271 11.5682 92.7439 11.844C92.4607 12.1199 92.2484 12.4647 92.1068 12.844C91.9652 13.1889 91.8944 13.6027 91.8944 14.0164Z" fill="#000047"/>
<path d="M114.018 7.39575C113.451 6.77506 112.885 6.36126 112.319 6.15437C111.788 5.94747 111.221 5.84402 110.655 5.84402C109.841 5.84402 109.097 5.98195 108.425 6.25782C107.752 6.53368 107.186 6.94747 106.69 7.43023C106.195 7.94747 105.841 8.53368 105.593 9.18885C105.345 9.84402 105.204 10.5682 105.204 11.3613C105.204 12.1889 105.345 12.9475 105.593 13.6716C105.841 14.3613 106.23 14.982 106.69 15.4992C107.186 16.0164 107.752 16.3957 108.425 16.7061C109.097 16.982 109.841 17.1544 110.655 17.1544C111.292 17.1544 111.929 17.0164 112.531 16.7061C113.133 16.3957 113.699 15.913 114.23 15.2578L116.567 16.8785C115.859 17.844 114.974 18.5337 113.947 18.982C112.92 19.4302 111.823 19.6371 110.655 19.6371C109.416 19.6371 108.319 19.4302 107.292 19.0509C106.266 18.6716 105.381 18.1199 104.637 17.3957C103.894 16.6716 103.328 15.844 102.903 14.844C102.478 13.844 102.266 12.7406 102.266 11.5337C102.266 10.2923 102.478 9.15437 102.903 8.15437C103.328 7.15437 103.894 6.2923 104.637 5.56816C105.381 4.84402 106.266 4.2923 107.292 3.91299C108.319 3.53368 109.451 3.32678 110.655 3.32678C111.717 3.32678 112.744 3.4992 113.664 3.87851C114.584 4.25782 115.434 4.87851 116.248 5.77506L114.018 7.39575Z" fill="#000047"/>
<path d="M117.629 8.74058H120.319V10.3958H120.355C120.638 9.77507 121.098 9.32679 121.629 8.98196C122.195 8.63714 122.832 8.46472 123.54 8.46472C123.717 8.46472 123.859 8.46472 124.036 8.4992C124.178 8.53369 124.355 8.56817 124.532 8.60265V11.1544C124.319 11.0854 124.071 11.0509 123.859 11.0164C123.647 10.982 123.434 10.9475 123.222 10.9475C122.585 10.9475 122.089 11.0509 121.7 11.2923C121.31 11.5337 121.027 11.7751 120.815 12.0854C120.602 12.3613 120.461 12.6716 120.425 12.9475C120.355 13.2233 120.319 13.4647 120.319 13.6027V19.2233H117.629V8.74058Z" fill="#000047"/>
<path d="M127.54 14.913C127.646 15.7061 127.929 16.3268 128.496 16.7406C129.027 17.1889 129.699 17.3958 130.443 17.3958C131.115 17.3958 131.681 17.2578 132.142 16.982C132.602 16.7061 132.991 16.3613 133.345 15.982L135.292 17.3958C134.655 18.1544 133.947 18.7061 133.168 19.0165C132.389 19.3268 131.575 19.4992 130.726 19.4992C129.912 19.4992 129.168 19.3613 128.425 19.1199C127.717 18.844 127.08 18.4992 126.549 18.0165C126.018 17.5337 125.593 16.9475 125.31 16.2923C124.991 15.6027 124.85 14.844 124.85 14.0165C124.85 13.1889 124.991 12.4303 125.31 11.7406C125.628 11.0509 126.018 10.4992 126.549 10.0165C127.08 9.5337 127.681 9.15439 128.425 8.91301C129.133 8.63715 129.912 8.5337 130.726 8.5337C131.469 8.5337 132.142 8.67164 132.779 8.91301C133.416 9.15439 133.947 9.5337 134.372 10.0165C134.797 10.4992 135.15 11.0854 135.398 11.8096C135.646 12.5337 135.752 13.3268 135.752 14.2578V14.982H127.54V14.913ZM133.062 12.9475C133.062 12.1889 132.814 11.5682 132.319 11.1199C131.823 10.6716 131.186 10.4647 130.336 10.4647C129.522 10.4647 128.885 10.7061 128.425 11.1544C127.965 11.6027 127.681 12.2234 127.575 12.982H133.062V12.9475ZM131.469 3.77509H134.513L131.363 6.91302H129.239L131.469 3.77509Z" fill="#000047"/>
<path d="M146.231 17.6716H146.195C145.806 18.3268 145.275 18.7751 144.638 19.0854C143.965 19.3613 143.257 19.5337 142.514 19.5337C141.664 19.5337 140.921 19.3958 140.284 19.1199C139.647 18.844 139.08 18.4303 138.62 17.9475C138.16 17.4647 137.806 16.8785 137.558 16.1889C137.31 15.5337 137.204 14.8096 137.204 14.0165C137.204 13.2578 137.346 12.5337 137.593 11.844C137.841 11.1889 138.195 10.6027 138.655 10.0854C139.116 9.60267 139.647 9.18888 140.319 8.91301C140.956 8.63715 141.664 8.49922 142.443 8.49922C142.939 8.49922 143.399 8.5337 143.788 8.63715C144.178 8.7406 144.532 8.87853 144.815 9.01646C145.098 9.18887 145.381 9.36129 145.593 9.5337C145.806 9.70612 145.983 9.87853 146.124 10.0854H146.195V2.70612H148.886V19.2234H146.337V17.6716H146.231ZM139.859 14.0165C139.859 14.4303 139.93 14.8096 140.071 15.1889C140.213 15.5682 140.425 15.913 140.709 16.1889C140.992 16.4647 141.31 16.7061 141.7 16.8785C142.089 17.0509 142.514 17.1544 143.009 17.1544C143.505 17.1544 143.93 17.0509 144.319 16.8785C144.709 16.7061 145.027 16.4647 145.31 16.1889C145.593 15.913 145.806 15.5682 145.947 15.1889C146.089 14.8096 146.16 14.4303 146.16 14.0165C146.16 13.6027 146.089 13.2234 145.947 12.844C145.806 12.4647 145.593 12.1199 145.31 11.844C145.027 11.5682 144.709 11.3268 144.319 11.1544C143.93 10.982 143.505 10.8785 143.009 10.8785C142.514 10.8785 142.089 10.982 141.7 11.1544C141.31 11.3268 140.992 11.5682 140.709 11.844C140.425 12.1199 140.213 12.4647 140.071 12.844C139.93 13.1889 139.859 13.6027 139.859 14.0165Z" fill="#000047"/>
<path d="M150.938 5.18887C150.938 4.77508 151.115 4.39576 151.434 4.08542C151.753 3.77508 152.177 3.60266 152.673 3.60266C153.169 3.60266 153.593 3.74059 153.912 4.05094C154.266 4.36128 154.408 4.74059 154.408 5.18887C154.408 5.63714 154.231 6.01645 153.912 6.3268C153.558 6.63714 153.169 6.77508 152.673 6.77508C152.177 6.77508 151.788 6.60266 151.434 6.29232C151.115 5.98197 150.938 5.60266 150.938 5.18887ZM151.328 8.74059H154.018V19.2234H151.328V8.74059Z" fill="#000047"/>
<path d="M155.257 10.982V8.7406H157.487V5.70612H160.177V8.7406H163.151V10.982H160.177V15.5682C160.177 16.0854 160.283 16.4992 160.496 16.8096C160.708 17.1199 161.098 17.2578 161.699 17.2578C161.947 17.2578 162.195 17.2234 162.478 17.1889C162.761 17.1544 162.974 17.0509 163.151 16.9475V19.1544C162.867 19.2923 162.513 19.3613 162.124 19.4303C161.699 19.4647 161.345 19.4992 161.027 19.4992C160.319 19.4992 159.717 19.4303 159.257 19.2578C158.797 19.1199 158.443 18.8785 158.195 18.5682C157.947 18.2578 157.77 17.8785 157.664 17.3958C157.558 16.913 157.522 16.3958 157.522 15.7751V10.9475H155.257V10.982Z" fill="#000047"/>
<path d="M164.142 14.0164C164.142 13.1889 164.283 12.4302 164.602 11.7406C164.92 11.0509 165.31 10.4992 165.841 10.0164C166.372 9.53369 166.973 9.15438 167.717 8.913C168.425 8.63714 169.204 8.53369 170.018 8.53369C170.832 8.53369 171.575 8.67162 172.319 8.913C173.027 9.18886 173.664 9.53369 174.195 10.0164C174.726 10.4992 175.15 11.0854 175.434 11.7406C175.752 12.4302 175.894 13.1889 175.894 14.0164C175.894 14.844 175.752 15.6027 175.434 16.2923C175.115 16.982 174.726 17.5337 174.195 18.0164C173.664 18.4992 173.062 18.8785 172.319 19.1199C171.611 19.3958 170.832 19.4992 170.018 19.4992C169.204 19.4992 168.46 19.3613 167.717 19.1199C166.973 18.8785 166.372 18.4992 165.841 18.0164C165.31 17.5337 164.885 16.9475 164.602 16.2923C164.283 15.6027 164.142 14.844 164.142 14.0164ZM166.832 14.0164C166.832 14.4302 166.903 14.8096 167.044 15.1889C167.186 15.5682 167.398 15.913 167.681 16.1889C167.965 16.4647 168.283 16.7061 168.673 16.8785C169.062 17.0509 169.487 17.1544 169.982 17.1544C170.478 17.1544 170.903 17.0509 171.292 16.8785C171.681 16.7061 172 16.4647 172.283 16.1889C172.566 15.913 172.779 15.5682 172.92 15.1889C173.062 14.8096 173.133 14.4302 173.133 14.0164C173.133 13.6027 173.062 13.2233 172.92 12.844C172.779 12.4647 172.566 12.1199 172.283 11.844C172 11.5682 171.681 11.3268 171.292 11.1544C170.903 10.982 170.478 10.8785 169.982 10.8785C169.487 10.8785 169.062 10.982 168.673 11.1544C168.283 11.3268 167.965 11.5682 167.681 11.844C167.398 12.1199 167.186 12.4647 167.044 12.844C166.903 13.1889 166.832 13.6027 166.832 14.0164Z" fill="#000047"/>
<path d="M39.9643 26.3268C39.5396 25.8786 39.1502 25.6027 38.7608 25.4648C38.3714 25.3268 37.982 25.2579 37.5926 25.2579C36.9909 25.2579 36.4599 25.3613 35.9997 25.5682C35.5396 25.7751 35.1148 26.051 34.7608 26.3958C34.4068 26.7406 34.159 27.1889 33.982 27.6372C33.805 28.1199 33.6988 28.6372 33.6988 29.1889C33.6988 29.7751 33.805 30.3268 33.982 30.8096C34.159 31.2924 34.4422 31.7406 34.7608 32.0855C35.1148 32.4648 35.5042 32.7406 35.9997 32.9475C36.4599 33.1544 36.9909 33.2579 37.5926 33.2579C38.0528 33.2579 38.513 33.1544 38.9378 32.9475C39.3626 32.7406 39.7873 32.3958 40.1413 31.913L41.805 33.051C41.3095 33.7406 40.6723 34.2234 39.9289 34.5337C39.1856 34.8441 38.4068 35.0165 37.5926 35.0165C36.7077 35.0165 35.9289 34.8786 35.1856 34.6027C34.4422 34.3268 33.8404 33.9475 33.3095 33.4303C32.7785 32.913 32.3537 32.3268 32.0705 31.6027C31.7873 30.913 31.6104 30.1199 31.6104 29.2579C31.6104 28.3613 31.7519 27.5682 32.0705 26.8441C32.3537 26.12 32.7785 25.4993 33.3095 25.0165C33.8404 24.4993 34.4776 24.12 35.1856 23.8441C35.9289 23.5682 36.7077 23.4303 37.5926 23.4303C38.3714 23.4303 39.0794 23.5682 39.7165 23.8441C40.3891 24.12 40.9909 24.5682 41.5572 25.1889L39.9643 26.3268Z" fill="#A7A9C1"/>
<path d="M42.9727 27.2923H44.8842V28.4648H44.9196C45.1319 28.0165 45.4505 27.7061 45.8399 27.4648C46.2293 27.2234 46.6895 27.1199 47.185 27.1199C47.2912 27.1199 47.4328 27.1199 47.539 27.1544C47.6452 27.1889 47.7514 27.1889 47.893 27.2234V29.0165C47.716 28.982 47.5744 28.9475 47.4328 28.913C47.2912 28.8786 47.1142 28.8786 46.9727 28.8786C46.5125 28.8786 46.1585 28.9475 45.9107 29.1199C45.6275 29.2924 45.4151 29.4648 45.2735 29.6717C45.1319 29.8786 45.0258 30.0855 44.9904 30.2924C44.955 30.4992 44.9196 30.6717 44.9196 30.7751V34.7751H43.0081V27.2923H42.9727Z" fill="#A7A9C1"/>
<path d="M50.4425 31.6716C50.5133 32.2234 50.7257 32.6716 51.1151 32.982C51.5045 33.2923 51.9646 33.4647 52.4956 33.4647C52.9912 33.4647 53.3806 33.3613 53.6992 33.1889C54.0177 32.982 54.3009 32.7406 54.5487 32.4647L55.9292 33.4647C55.4691 34.0165 54.9735 34.3958 54.4425 34.6027C53.8761 34.8441 53.3098 34.9475 52.708 34.9475C52.1416 34.9475 51.5753 34.844 51.0797 34.6716C50.5841 34.4992 50.1239 34.2234 49.77 33.8785C49.3806 33.5337 49.0974 33.1199 48.885 32.6372C48.6726 32.1544 48.5664 31.6027 48.5664 31.0165C48.5664 30.4303 48.6726 29.8785 48.885 29.3958C49.0974 28.913 49.416 28.4992 49.77 28.1544C50.1593 27.8096 50.5841 27.5337 51.0797 27.3613C51.5753 27.1889 52.1416 27.0854 52.708 27.0854C53.239 27.0854 53.7346 27.1889 54.1593 27.3613C54.5841 27.5337 54.9735 27.8096 55.2921 28.1544C55.6107 28.4992 55.8584 28.913 56.0354 29.4303C56.2124 29.9475 56.2832 30.4992 56.2832 31.1544V31.6716H50.4425ZM54.3717 30.2578C54.3717 29.7061 54.1947 29.2578 53.8407 28.9475C53.4868 28.6372 53.0266 28.4647 52.4248 28.4647C51.8584 28.4647 51.3983 28.6372 51.0443 28.9475C50.7257 29.2578 50.5133 29.7061 50.4425 30.2234H54.3717V30.2578ZM53.239 23.7406H55.3983L53.1328 25.982H51.6461L53.239 23.7406Z" fill="#A7A9C1"/>
<path d="M64.141 33.6372C63.8224 34.0854 63.4684 34.4303 62.9728 34.6372C62.5126 34.8441 61.9817 34.9475 61.4507 34.9475C60.8489 34.9475 60.318 34.8441 59.8578 34.6372C59.3976 34.4303 59.0082 34.1544 58.6542 33.8096C58.3357 33.4648 58.0879 33.051 57.9109 32.5682C57.7339 32.0854 57.6631 31.5682 57.6631 31.0165C57.6631 30.4648 57.7693 29.9475 57.9463 29.4648C58.1233 28.982 58.3711 28.5682 58.6896 28.2234C59.0082 27.8785 59.3976 27.6027 59.8578 27.3958C60.318 27.1889 60.8135 27.0854 61.3445 27.0854C61.6985 27.0854 62.0171 27.1199 62.3003 27.1889C62.5834 27.2579 62.8312 27.3613 63.0436 27.4648C63.256 27.5682 63.433 27.7061 63.5746 27.8441C63.7162 27.982 63.8578 28.0854 63.9286 28.2234H63.964V22.982H65.8755V34.7406H64.0702V33.6372H64.141ZM59.61 31.0165C59.61 31.2923 59.6454 31.6027 59.7516 31.8441C59.8578 32.1199 59.9994 32.3613 60.2118 32.5682C60.4241 32.7751 60.6365 32.9475 60.9197 33.051C61.2029 33.1889 61.5215 33.2234 61.8755 33.2234C62.2295 33.2234 62.548 33.1544 62.8312 33.051C63.1144 32.913 63.3622 32.7751 63.5392 32.5682C63.7516 32.3613 63.8932 32.1199 63.9994 31.8441C64.1056 31.5682 64.141 31.2923 64.141 31.0165C64.141 30.7406 64.1056 30.4303 63.9994 30.1889C63.8932 29.913 63.7516 29.6717 63.5392 29.4648C63.3268 29.2579 63.1144 29.0854 62.8312 28.982C62.548 28.8441 62.2295 28.8096 61.8755 28.8096C61.5215 28.8096 61.2029 28.8785 60.9197 28.982C60.6365 29.1199 60.3888 29.2579 60.2118 29.4648C59.9994 29.6717 59.8578 29.913 59.7516 30.1889C59.6454 30.4303 59.61 30.7406 59.61 31.0165Z" fill="#A7A9C1"/>
<path d="M67.9287 24.7406C67.9287 24.4302 68.0349 24.1889 68.2827 23.9475C68.4951 23.7406 68.8137 23.6027 69.1677 23.6027C69.5216 23.6027 69.8048 23.7061 70.0526 23.913C70.3004 24.1199 70.4066 24.3958 70.4066 24.7061C70.4066 25.0165 70.3004 25.2923 70.0526 25.4992C69.8048 25.7061 69.5216 25.8096 69.1677 25.8096C68.8137 25.8096 68.5305 25.7061 68.2827 25.4647C68.0349 25.2923 67.9287 25.0509 67.9287 24.7406ZM68.1765 27.2923H70.088V34.7751H68.1765V27.2923Z" fill="#A7A9C1"/>
<path d="M71.3975 28.8786V27.2923H72.9904V25.1199H74.9019V27.2923H77.0258V28.8786H74.9019V32.1544C74.9019 32.5337 74.9727 32.8096 75.1143 33.051C75.2559 33.2579 75.5391 33.3613 75.9638 33.3613C76.1408 33.3613 76.3178 33.3268 76.5302 33.2923C76.7426 33.2579 76.8842 33.1889 77.0258 33.1199V34.7061C76.8134 34.8096 76.5656 34.8785 76.2824 34.913C75.9992 34.9475 75.716 34.982 75.5037 34.982C75.0081 34.982 74.5833 34.913 74.2647 34.8096C73.9461 34.7061 73.6983 34.5337 73.486 34.3268C73.309 34.1199 73.1674 33.8096 73.0966 33.4992C73.0258 33.1544 72.9904 32.7751 72.9904 32.3613V28.9475H71.3975V28.8786Z" fill="#A7A9C1"/>
<path d="M78.123 31.0165C78.123 30.4303 78.2292 29.8786 78.4416 29.3958C78.654 28.913 78.9726 28.4992 79.3266 28.1544C79.716 27.8096 80.1407 27.5337 80.6363 27.3613C81.1319 27.1889 81.6983 27.0854 82.2646 27.0854C82.831 27.0854 83.3974 27.1889 83.893 27.3613C84.3885 27.5337 84.8487 27.8096 85.2027 28.1544C85.5921 28.4992 85.8753 28.913 86.0877 29.3958C86.3 29.8786 86.4062 30.4303 86.4062 31.0165C86.4062 31.6027 86.3 32.1544 86.0877 32.6372C85.8753 33.1199 85.5567 33.5337 85.2027 33.8786C84.8133 34.2234 84.3885 34.4992 83.893 34.6717C83.3974 34.8441 82.831 34.9475 82.2646 34.9475C81.6983 34.9475 81.1319 34.8441 80.6363 34.6717C80.1407 34.4992 79.6806 34.2234 79.3266 33.8786C78.9372 33.5337 78.654 33.1199 78.4416 32.6372C78.2646 32.1544 78.123 31.6027 78.123 31.0165ZM80.07 31.0165C80.07 31.2923 80.1054 31.6027 80.2115 31.8441C80.3177 32.1199 80.4593 32.3613 80.6717 32.5682C80.8841 32.7751 81.0965 32.9475 81.3797 33.051C81.6629 33.1889 81.9815 33.2234 82.3354 33.2234C82.6894 33.2234 83.008 33.1544 83.2912 33.051C83.5744 32.913 83.8222 32.7751 83.9992 32.5682C84.2115 32.3613 84.3531 32.1199 84.4593 31.8441C84.5655 31.5682 84.6009 31.2923 84.6009 31.0165C84.6009 30.7406 84.5655 30.4303 84.4593 30.1889C84.3531 29.913 84.2115 29.6717 83.9992 29.4648C83.7868 29.2579 83.5744 29.0854 83.2912 28.982C83.008 28.8441 82.6894 28.8096 82.3354 28.8096C81.9815 28.8096 81.6629 28.8786 81.3797 28.982C81.0965 29.1199 80.8487 29.2579 80.6717 29.4648C80.4593 29.6717 80.3177 29.913 80.2115 30.1889C80.1054 30.4303 80.07 30.7406 80.07 31.0165Z" fill="#A7A9C1"/>
<path d="M96.8493 23.7406H98.5838L103.469 34.7751H101.168L100.106 32.2578H95.1856L94.159 34.7751H91.8936L96.8493 23.7406ZM99.398 30.5337L97.6635 26.0509L95.8936 30.5337H99.398Z" fill="#A7A9C1"/>
<path d="M111.54 34.7406H109.735V33.5337H109.699C109.522 33.913 109.239 34.2234 108.885 34.4993C108.496 34.7751 108 34.913 107.363 34.913C106.868 34.913 106.407 34.8441 106.053 34.6717C105.699 34.4993 105.416 34.2924 105.168 34.0165C104.956 33.7406 104.779 33.4303 104.673 33.0855C104.567 32.7406 104.531 32.3613 104.531 31.982V27.2924H106.443V31.0855C106.443 31.2924 106.443 31.5337 106.478 31.7751C106.514 32.0165 106.549 32.2579 106.655 32.4993C106.761 32.7062 106.868 32.913 107.08 33.051C107.257 33.1889 107.54 33.2924 107.859 33.2924C108.177 33.2924 108.46 33.2234 108.673 33.1199C108.885 33.0165 109.062 32.8786 109.204 32.7062C109.345 32.5337 109.452 32.3268 109.522 32.0855C109.593 31.8441 109.629 31.6027 109.629 31.3613V27.2924H111.54V34.7406Z" fill="#A7A9C1"/>
<path d="M112.813 28.8786V27.2923H114.406V25.1199H116.318V27.2923H118.442V28.8786H116.318V32.1544C116.318 32.5337 116.389 32.8096 116.53 33.051C116.672 33.2923 116.955 33.3613 117.38 33.3613C117.557 33.3613 117.734 33.3268 117.946 33.2923C118.159 33.2579 118.3 33.1889 118.442 33.1199V34.7061C118.229 34.8096 117.982 34.8785 117.698 34.913C117.415 34.9475 117.132 34.982 116.92 34.982C116.424 34.982 115.999 34.913 115.681 34.8096C115.362 34.7061 115.114 34.5337 114.902 34.3268C114.725 34.1199 114.583 33.8096 114.513 33.4992C114.442 33.1544 114.406 32.7751 114.406 32.3613V28.9475H112.813V28.8786Z" fill="#A7A9C1"/>
<path d="M119.539 31.0165C119.539 30.4303 119.645 29.8786 119.858 29.3958C120.07 28.913 120.389 28.4992 120.743 28.1544C121.132 27.8096 121.557 27.5337 122.052 27.3613C122.548 27.1889 123.114 27.0854 123.681 27.0854C124.247 27.0854 124.813 27.1889 125.309 27.3613C125.805 27.5337 126.265 27.8096 126.619 28.1544C127.008 28.4992 127.291 28.913 127.504 29.3958C127.716 29.8786 127.822 30.4303 127.822 31.0165C127.822 31.6027 127.716 32.1544 127.504 32.6372C127.291 33.1199 126.973 33.5337 126.619 33.8786C126.229 34.2234 125.805 34.4992 125.309 34.6717C124.813 34.8441 124.247 34.9475 123.681 34.9475C123.114 34.9475 122.548 34.8441 122.052 34.6717C121.557 34.4992 121.097 34.2234 120.743 33.8786C120.353 33.5337 120.07 33.1199 119.858 32.6372C119.645 32.1544 119.539 31.6027 119.539 31.0165ZM121.451 31.0165C121.451 31.2923 121.486 31.6027 121.592 31.8441C121.698 32.1199 121.84 32.3613 122.052 32.5682C122.265 32.7751 122.477 32.9475 122.76 33.051C123.043 33.1889 123.362 33.2234 123.716 33.2234C124.07 33.2234 124.389 33.1544 124.672 33.051C124.955 32.913 125.203 32.7751 125.38 32.5682C125.592 32.3613 125.734 32.1199 125.84 31.8441C125.946 31.5682 125.982 31.2923 125.982 31.0165C125.982 30.7406 125.946 30.4303 125.84 30.1889C125.734 29.913 125.592 29.6717 125.38 29.4648C125.167 29.2579 124.955 29.0854 124.672 28.982C124.389 28.8441 124.07 28.8096 123.716 28.8096C123.362 28.8096 123.043 28.8786 122.76 28.982C122.477 29.1199 122.229 29.2579 122.052 29.4648C121.84 29.6717 121.698 29.913 121.592 30.1889C121.521 30.4303 121.451 30.7406 121.451 31.0165Z" fill="#A7A9C1"/>
<path d="M129.593 27.2923H131.398V28.4648H131.433C131.61 28.1199 131.894 27.8096 132.248 27.5337C132.637 27.2579 133.133 27.1199 133.77 27.1199C134.973 27.1199 135.787 27.5682 136.177 28.4992C136.46 28.0165 136.814 27.6717 137.203 27.4648C137.628 27.2579 138.124 27.1199 138.69 27.1199C139.186 27.1199 139.646 27.1889 140 27.3613C140.354 27.5337 140.637 27.7406 140.849 28.051C141.062 28.3268 141.239 28.6717 141.31 29.0855C141.416 29.4648 141.451 29.8786 141.451 30.3268V34.7751H139.54V30.4992C139.54 30.2579 139.504 30.051 139.469 29.8441C139.433 29.6372 139.363 29.4303 139.256 29.2924C139.15 29.1199 139.009 29.0165 138.832 28.913C138.655 28.8096 138.407 28.7751 138.124 28.7751C137.841 28.7751 137.557 28.8441 137.38 28.9475C137.168 29.051 136.991 29.1889 136.885 29.3958C136.743 29.5682 136.672 29.7751 136.602 30.0165C136.531 30.2579 136.531 30.4992 136.531 30.7406V34.7751H134.619V30.2924C134.619 29.8096 134.513 29.4648 134.301 29.1889C134.088 28.913 133.77 28.7751 133.31 28.7751C132.991 28.7751 132.708 28.8441 132.495 28.9475C132.283 29.051 132.106 29.1889 131.964 29.3613C131.823 29.5337 131.717 29.7406 131.646 29.982C131.575 30.2234 131.54 30.4648 131.54 30.7061V34.7751H129.628V27.2923H129.593Z" fill="#A7A9C1"/>
<path d="M143.186 31.0165C143.186 30.4303 143.292 29.8786 143.504 29.3958C143.717 28.913 144.035 28.4992 144.389 28.1544C144.778 27.8096 145.203 27.5337 145.699 27.3613C146.194 27.1889 146.761 27.0854 147.327 27.0854C147.894 27.0854 148.46 27.1889 148.955 27.3613C149.451 27.5337 149.911 27.8096 150.265 28.1544C150.655 28.4992 150.938 28.913 151.15 29.3958C151.363 29.8786 151.469 30.4303 151.469 31.0165C151.469 31.6027 151.363 32.1544 151.15 32.6372C150.938 33.1199 150.619 33.5337 150.265 33.8786C149.876 34.2234 149.451 34.4992 148.955 34.6717C148.46 34.8441 147.894 34.9475 147.327 34.9475C146.761 34.9475 146.194 34.8441 145.699 34.6717C145.203 34.4992 144.743 34.2234 144.389 33.8786C144 33.5337 143.717 33.1199 143.504 32.6372C143.292 32.1544 143.186 31.6027 143.186 31.0165ZM145.097 31.0165C145.097 31.2923 145.132 31.6027 145.239 31.8441C145.345 32.1199 145.486 32.3613 145.699 32.5682C145.911 32.7751 146.124 32.9475 146.407 33.051C146.69 33.1889 147.009 33.2234 147.363 33.2234C147.717 33.2234 148.035 33.1544 148.318 33.051C148.601 32.913 148.849 32.7751 149.026 32.5682C149.239 32.3613 149.38 32.1199 149.486 31.8441C149.593 31.5682 149.628 31.2923 149.628 31.0165C149.628 30.7406 149.593 30.4303 149.486 30.1889C149.38 29.913 149.239 29.6717 149.026 29.4648C148.814 29.2579 148.601 29.0854 148.318 28.982C148.035 28.8441 147.717 28.8096 147.363 28.8096C147.009 28.8096 146.69 28.8786 146.407 28.982C146.124 29.1199 145.876 29.2579 145.699 29.4648C145.486 29.6717 145.345 29.913 145.239 30.1889C145.168 30.4303 145.097 30.7406 145.097 31.0165Z" fill="#A7A9C1"/>
<path d="M152.425 28.8786V27.2923H154.018V25.1199H155.929V27.2923H158.053V28.8786H155.929V32.1544C155.929 32.5337 156 32.8096 156.142 33.051C156.283 33.2579 156.566 33.3613 156.991 33.3613C157.168 33.3613 157.345 33.3268 157.558 33.2923C157.77 33.2579 157.912 33.1889 158.053 33.1199V34.7061C157.841 34.8096 157.593 34.8785 157.31 34.913C157.027 34.9475 156.743 34.982 156.531 34.982C156.035 34.982 155.611 34.913 155.292 34.8096C154.973 34.7061 154.726 34.5337 154.513 34.3268C154.336 34.1199 154.195 33.8096 154.124 33.4992C154.053 33.1544 154.018 32.7751 154.018 32.3613V28.9475H152.425V28.8786Z" fill="#A7A9C1"/>
<path d="M159.539 27.2923H161.451V28.4648H161.486C161.698 28.0165 162.017 27.7061 162.406 27.4648C162.796 27.2234 163.256 27.1199 163.751 27.1199C163.858 27.1199 163.999 27.1199 164.105 27.1544C164.212 27.1889 164.318 27.1889 164.459 27.2234V29.0165C164.282 28.982 164.141 28.9475 163.999 28.913C163.858 28.8786 163.681 28.8786 163.539 28.8786C163.079 28.8786 162.725 28.9475 162.477 29.1199C162.194 29.2924 161.982 29.4648 161.84 29.6717C161.698 29.8786 161.592 30.0855 161.557 30.2924C161.521 30.4992 161.486 30.6717 161.486 30.7751V34.7751H159.574V27.2923H159.539Z" fill="#A7A9C1"/>
<path d="M165.521 24.7406C165.521 24.4302 165.628 24.1889 165.875 23.9475C166.088 23.7406 166.406 23.6027 166.76 23.6027C167.114 23.6027 167.398 23.7061 167.645 23.913C167.893 24.1199 167.999 24.3958 167.999 24.7061C167.999 25.0165 167.893 25.2923 167.645 25.4992C167.398 25.7061 167.114 25.8096 166.76 25.8096C166.406 25.8096 166.123 25.7061 165.875 25.4647C165.628 25.2923 165.521 25.0509 165.521 24.7406ZM165.805 27.2923H167.716V34.7751H165.805V27.2923Z" fill="#A7A9C1"/>
<path d="M169.381 33.0165L173.487 28.8096V28.7751H169.558V27.2924H175.788V28.982L171.646 33.2579H176V34.7406H169.381V33.0165Z" fill="#A7A9C1"/>
<path d="M11.7876 0.0164795V5.25786C8.63717 5.982 6.12389 8.39579 5.38053 11.4992H0C0.884956 5.5682 5.69911 0.878549 11.7876 0.0164795Z" fill="#033DC0"/>
<path d="M11.7876 21.6027V26.8441C5.69911 26.0165 0.884956 21.3268 0 15.3613H5.38053C6.12389 18.4648 8.63717 20.8786 11.7876 21.6027Z" fill="#033DC0"/>
<path d="M27.5747 15.3613C26.6898 21.2924 21.8756 25.982 15.7871 26.8441V21.6027C18.9376 20.8786 21.4508 18.4648 22.1942 15.3613H27.5747Z" fill="#033DC0"/>
<path d="M27.575 11.4992H22.159C21.4157 8.43027 18.9378 5.982 15.752 5.25786V0.0164795C21.8758 0.878549 26.69 5.5682 27.575 11.4992Z" fill="#033DC0"/>
</svg>
